<?xml version="1.0" encoding="UTF-8" standalone="no"?>
<!DOCTYPE svg PUBLIC "-//W3C//DTD SVG 1.1//EN" "http://www.w3.org/Graphics/SVG/1.1/DTD/svg11.dtd">
<svg version="1.1" xmlns="http://www.w3.org/2000/svg" xmlns:xlink="http://www.w3.org/1999/xlink" preserveAspectRatio="xMidYMid meet" viewBox="0 0 16 16" width="16" height="16"><defs><path d="M14.39 0.95L14.54 1.01L14.67 1.1L14.8 1.2L14.9 1.33L14.99 1.46L15.05 1.61L15.09 1.78L15.11 1.95L15.11 14.05L15.09 14.22L15.05 14.39L14.99 14.54L14.9 14.67L14.8 14.8L14.67 14.9L14.54 14.99L14.39 15.05L14.22 15.09L14.05 15.11L1.95 15.11L1.78 15.09L1.61 15.05L1.46 14.99L1.33 14.9L1.2 14.8L1.1 14.67L1.01 14.54L0.95 14.39L0.91 14.22L0.89 14.05L0.89 1.95L0.99 1.75L1.09 1.57L1.19 1.41L1.29 1.27L1.39 1.16L1.5 1.06L1.61 0.99L1.72 0.94L1.83 0.9L1.95 0.89L14.05 0.89L14.22 0.91L14.39 0.95ZM11.04 10.96L10.96 11.02L10.91 11.09L10.9 11.16L10.9 12.74L10.92 12.84L10.97 12.92L11.06 12.98L11.16 13L12.74 13L12.84 12.98L12.92 12.92L12.98 12.84L13 12.74L13 11.16L12.98 11.06L12.92 10.97L12.84 10.92L12.74 10.9L11.16 10.9L11.04 10.96ZM5.78 10.96L5.7 11.02L5.65 11.09L5.63 11.16L5.63 12.74L5.65 12.84L5.71 12.92L5.79 12.98L5.89 13L7.47 13L7.58 12.98L7.66 12.92L7.72 12.84L7.74 12.74L7.74 11.16L7.72 11.06L7.66 10.97L7.58 10.92L7.47 10.9L5.89 10.9L5.78 10.96ZM8.46 10.91L8.39 10.96L8.32 11.04L8.26 11.16L8.26 12.74L8.28 12.84L8.34 12.92L8.42 12.98L8.53 13L10.11 13L10.21 12.98L10.29 12.92L10.35 12.84L10.37 12.74L10.37 11.16L10.35 11.06L10.29 10.97L10.21 10.92L10.11 10.9L8.53 10.9L8.46 10.91ZM8.41 8.32L8.33 8.39L8.28 8.46L8.26 8.53L8.26 10.11L8.28 10.21L8.34 10.29L8.42 10.35L8.53 10.37L10.11 10.37L10.21 10.35L10.29 10.29L10.35 10.21L10.37 10.11L10.37 8.53L10.35 8.42L10.29 8.34L10.21 8.28L10.11 8.26L8.53 8.26L8.41 8.32ZM3.19 8.28L3.12 8.33L3.06 8.41L3 8.53L3 10.11L3.02 10.21L3.08 10.29L3.16 10.35L3.26 10.37L4.84 10.37L4.94 10.35L5.03 10.29L5.08 10.21L5.1 10.11L5.1 8.53L5.08 8.42L5.03 8.34L4.94 8.28L4.84 8.26L3.26 8.26L3.19 8.28ZM11.09 8.28L11.02 8.33L10.96 8.41L10.9 8.53L10.9 10.11L10.92 10.21L10.97 10.29L11.06 10.35L11.16 10.37L12.74 10.37L12.84 10.35L12.92 10.29L12.98 10.21L13 10.11L13 8.53L12.98 8.42L12.92 8.34L12.84 8.28L12.74 8.26L11.16 8.26L11.09 8.28ZM5.82 5.65L5.76 5.7L5.69 5.78L5.63 5.89L5.63 7.47L5.65 7.58L5.71 7.66L5.79 7.72L5.89 7.74L7.47 7.74L7.58 7.72L7.66 7.66L7.72 7.58L7.74 7.47L7.74 5.89L7.72 5.79L7.66 5.71L7.58 5.65L7.47 5.63L5.89 5.63L5.82 5.65ZM3.15 5.69L3.07 5.76L3.02 5.82L3 5.89L3 7.47L3.02 7.58L3.08 7.66L3.16 7.72L3.26 7.74L4.84 7.74L4.94 7.72L5.03 7.66L5.08 7.58L5.1 7.47L5.1 5.89L5.08 5.79L5.03 5.71L4.94 5.65L4.84 5.63L3.26 5.63L3.15 5.69ZM11.04 5.69L10.96 5.76L10.91 5.82L10.9 5.89L10.9 7.47L10.92 7.58L10.97 7.66L11.06 7.72L11.16 7.74L12.74 7.74L12.84 7.72L12.92 7.66L12.98 7.58L13 7.47L13 5.89L12.98 5.79L12.92 5.71L12.84 5.65L12.74 5.63L11.16 5.63L11.04 5.69ZM5.78 3.06L5.7 3.12L5.65 3.19L5.63 3.26L5.63 4.84L5.65 4.94L5.71 5.03L5.79 5.08L5.89 5.1L7.47 5.1L7.58 5.08L7.66 5.03L7.72 4.94L7.74 4.84L7.74 3.26L7.72 3.16L7.66 3.08L7.58 3.02L7.47 3L5.89 3L5.78 3.06ZM3.19 3.02L3.12 3.07L3.06 3.15L3 3.26L3 4.84L3.02 4.94L3.08 5.03L3.16 5.08L3.26 5.1L4.84 5.1L4.94 5.08L5.03 5.03L5.08 4.94L5.1 4.84L5.1 3.26L5.08 3.16L5.03 3.08L4.94 3.02L4.84 3L3.26 3L3.19 3.02ZM8.46 3.02L8.39 3.07L8.32 3.15L8.26 3.26L8.26 4.84L8.28 4.94L8.34 5.03L8.42 5.08L8.53 5.1L10.11 5.1L10.21 5.08L10.29 5.03L10.35 4.94L10.37 4.84L10.37 3.26L10.35 3.16L10.29 3.08L10.21 3.02L10.11 3L8.53 3L8.46 3.02Z" id="dXf5zw01L"></path></defs><g><g><g><use xlink:href="#dXf5zw01L" opacity="1" fill="#0b63ce" fill-opacity="1"></use><g><use xlink:href="#dXf5zw01L" opacity="1" fill-opacity="0" stroke="#000000" stroke-width="1" stroke-opacity="0"></use></g></g></g></g></svg>